<svg width="24" height="24" viewBox="0 0 24 24" fill="none" xmlns="http://www.w3.org/2000/svg">
<path d="M8.62179 21.5396C8.70813 21.6333 8.75404 21.7572 8.74955 21.8844C8.74505 22.0117 8.69052 22.132 8.59779 22.2193L7.55523 23.1942C7.46207 23.2806 7.33848 23.3265 7.21153 23.3219C7.08458 23.3173 6.96462 23.2626 6.87795 23.1697L0.806426 16.6264C0.720146 16.5327 0.674319 16.4088 0.678902 16.2815C0.683486 16.1542 0.738111 16.0339 0.830906 15.9467L1.87491 14.9732C1.96806 14.8869 2.09165 14.8409 2.2186 14.8455C2.34556 14.8501 2.46551 14.9049 2.55219 14.9977L8.62179 21.5396ZM16.369 9.22765C16.4553 9.32132 16.5011 9.44525 16.4965 9.57252C16.4919 9.69979 16.4373 9.8201 16.3445 9.90732L9.78291 16.0369C9.68975 16.1233 9.56616 16.1692 9.43921 16.1646C9.31226 16.16 9.1923 16.1053 9.10563 16.0124L7.53939 14.3224C7.45311 14.2287 7.40728 14.1048 7.41186 13.9775C7.41645 13.8502 7.47107 13.7299 7.56387 13.6427L14.124 7.51309C14.1701 7.47021 14.2241 7.43684 14.283 7.41486C14.342 7.39289 14.4046 7.38275 14.4675 7.38502C14.5304 7.3873 14.5922 7.40194 14.6493 7.42811C14.7065 7.45429 14.758 7.49148 14.8008 7.53757L16.369 9.22765ZM10.8543 19.4531C11.0338 19.6465 11.0227 19.9523 10.8298 20.1328L9.78579 21.1072C9.69263 21.1935 9.56904 21.2395 9.44209 21.2349C9.31514 21.2303 9.19518 21.1756 9.10851 21.0827L3.04035 14.5393C2.95401 14.4457 2.90809 14.3218 2.91259 14.1945C2.91708 14.0673 2.97162 13.9469 3.06435 13.8596L4.10643 12.8857C4.19958 12.7994 4.32317 12.7534 4.45012 12.758C4.57708 12.7626 4.69703 12.8173 4.78371 12.9102L10.8543 19.4531ZM20.9645 9.46237C21.0507 9.5561 21.0965 9.68007 21.0918 9.80734C21.0871 9.93461 21.0324 10.0549 20.9395 10.142L19.896 11.1164C19.8029 11.203 19.6792 11.2491 19.5522 11.2446C19.4251 11.2401 19.305 11.1854 19.2183 11.0924L13.1491 4.55053C13.0627 4.45697 13.0167 4.33305 13.0212 4.20574C13.0257 4.07844 13.0803 3.95806 13.1731 3.87085L14.2195 2.89405C14.2656 2.85117 14.3196 2.8178 14.3785 2.79582C14.4375 2.77385 14.5002 2.76371 14.563 2.76598C14.6259 2.76826 14.6877 2.7829 14.7449 2.80907C14.8021 2.83525 14.8535 2.87244 14.8963 2.91853L20.9645 9.46237ZM23.1936 7.37917C23.2797 7.47303 23.3254 7.59699 23.3208 7.72426C23.3162 7.85153 23.2617 7.97189 23.1691 8.05933L22.1275 9.03325C22.0815 9.07615 22.0275 9.10956 21.9686 9.13157C21.9097 9.15359 21.847 9.16377 21.7842 9.16154C21.7213 9.15932 21.6595 9.14472 21.6023 9.11858C21.5451 9.09245 21.4936 9.0553 21.4507 9.00924L15.3826 2.46445C15.2965 2.37064 15.2507 2.24672 15.2552 2.11945C15.2597 1.99218 15.3141 1.87178 15.4066 1.78429L16.4491 0.808445C16.4951 0.7655 16.549 0.732046 16.6079 0.710002C16.6668 0.687958 16.7295 0.677758 16.7923 0.679988C16.8551 0.682218 16.9169 0.696833 16.9741 0.722996C17.0313 0.749158 17.0827 0.786353 17.1255 0.832445L23.1936 7.37917Z" fill="#222222"/>
</svg>
