<svg width="19" height="22" viewBox="0 0 19 22" fill="none" xmlns="http://www.w3.org/2000/svg">
<path d="M3.01 0.500002C2.1565 0.500002 1.37875 1.06775 1.177 1.937C0.952 2.9075 0.625 4.5725 0.625 6.125C0.624826 6.91603 0.817146 7.69522 1.18536 8.39533C1.55357 9.09543 2.08662 9.69542 2.7385 10.1435C3.0895 10.3843 3.25 10.6783 3.25 10.9175C3.24975 10.9426 3.24825 10.9676 3.2455 10.9925C3.202 11.36 3.01675 12.9275 2.842 14.5505C2.6695 16.1465 2.5 17.8693 2.5 18.5C2.5 19.2957 2.81607 20.0587 3.37868 20.6213C3.94129 21.1839 4.70435 21.5 5.5 21.5C6.29565 21.5 7.05871 21.1839 7.62132 20.6213C8.18393 20.0587 8.5 19.2957 8.5 18.5C8.5 17.87 8.32975 16.1465 8.158 14.5505C7.98325 12.9275 7.798 11.3593 7.7545 10.9918C7.75175 10.9668 7.75025 10.9418 7.75 10.9168C7.75 10.6783 7.9105 10.3843 8.26075 10.1435C8.91277 9.6955 9.44596 9.09555 9.81431 8.39544C10.1827 7.69533 10.3751 6.9161 10.375 6.125C10.375 4.57175 10.0487 2.90675 9.823 1.937C9.62125 1.06775 8.8435 0.500002 7.99 0.500002C7.54444 0.499333 7.11252 0.653648 6.76825 0.936502C6.40622 0.653253 5.95967 0.499563 5.5 0.500002C5.0215 0.500002 4.58125 0.662752 4.23175 0.936502C3.88748 0.653648 3.45556 0.499333 3.01 0.500002ZM7.5625 2.4275C7.5625 2.31412 7.60754 2.20539 7.68771 2.12521C7.76788 2.04504 7.87662 2 7.99 2C8.185 2 8.3275 2.1245 8.362 2.27675C8.5795 3.2135 8.875 4.74575 8.875 6.125C8.8751 6.67279 8.74187 7.21237 8.48681 7.69715C8.23174 8.18193 7.86251 8.59733 7.411 8.9075C6.8185 9.31475 6.25 10.0123 6.25 10.9175C6.25 11.001 6.255 11.085 6.265 11.1695C6.3085 11.5348 6.493 13.097 6.667 14.711C6.8425 16.3513 7 17.9713 7 18.5C7 18.8978 6.84196 19.2794 6.56066 19.5607C6.27936 19.842 5.89782 20 5.5 20C5.10218 20 4.72064 19.842 4.43934 19.5607C4.15804 19.2794 4 18.8978 4 18.5C4 17.9713 4.15675 16.3513 4.333 14.711C4.507 13.097 4.6915 11.5348 4.735 11.1695C4.745 11.0845 4.75 11.0005 4.75 10.9175C4.75 10.0123 4.18075 9.31475 3.589 8.9075C3.13749 8.59733 2.76826 8.18193 2.51319 7.69715C2.25813 7.21237 2.1249 6.67279 2.125 6.125C2.125 4.745 2.4205 3.2135 2.638 2.27675C2.65877 2.19491 2.7071 2.12271 2.77485 2.07231C2.8426 2.02191 2.92564 1.99637 3.01 2C3.12338 2 3.23212 2.04504 3.31229 2.12521C3.39246 2.20539 3.4375 2.31412 3.4375 2.4275V6.5C3.4375 6.69892 3.51652 6.88968 3.65717 7.03033C3.79782 7.17098 3.98859 7.25 4.1875 7.25C4.38641 7.25 4.57718 7.17098 4.71783 7.03033C4.85848 6.88968 4.9375 6.69892 4.9375 6.5V2.5625C4.9375 2.41332 4.99676 2.27024 5.10225 2.16475C5.20774 2.05927 5.35082 2 5.5 2C5.64918 2 5.79226 2.05927 5.89775 2.16475C6.00324 2.27024 6.0625 2.41332 6.0625 2.5625V6.5C6.0625 6.69892 6.14152 6.88968 6.28217 7.03033C6.42282 7.17098 6.61359 7.25 6.8125 7.25C7.01141 7.25 7.20218 7.17098 7.34283 7.03033C7.48348 6.88968 7.5625 6.69892 7.5625 6.5V2.4275ZM13 6.125C12.9999 5.0958 13.3845 4.10372 14.0783 3.34356C14.7721 2.5834 15.7251 2.11007 16.75 2.0165V10.25C16.75 10.4593 16.7913 10.931 16.8453 11.4935C16.9015 12.0763 16.978 12.812 17.0583 13.5875V13.5898C17.2705 15.623 17.5 17.852 17.5 18.5C17.5 18.8978 17.342 19.2794 17.0607 19.5607C16.7794 19.842 16.3978 20 16 20C15.6022 20 15.2206 19.842 14.9393 19.5607C14.658 19.2794 14.5 18.8978 14.5 18.5C14.5 17.9645 14.659 16.1638 14.836 14.342C14.9643 13.0305 15.0981 11.7194 15.2372 10.409C15.2416 10.3693 15.2448 10.3296 15.247 10.2898C15.2524 10.188 15.237 10.0863 15.2018 9.99069C15.1666 9.89511 15.1123 9.80771 15.0422 9.73381C14.972 9.65991 14.8876 9.60107 14.794 9.56087C14.7004 9.52067 14.5996 9.49996 14.4977 9.5H13.375C13.2755 9.5 13.1802 9.46049 13.1098 9.39017C13.0395 9.31984 13 9.22446 13 9.125V6.125ZM17.125 0.500002C15.6332 0.500002 14.2024 1.09263 13.1475 2.14753C12.0926 3.20242 11.5 4.63316 11.5 6.125V9.125C11.5 9.62228 11.6975 10.0992 12.0492 10.4508C12.4008 10.8025 12.8777 11 13.375 11H13.6667C13.5553 12.0651 13.4475 13.1306 13.3435 14.1965C13.171 15.974 13 17.8715 13 18.5C13 19.2957 13.3161 20.0587 13.8787 20.6213C14.4413 21.1839 15.2044 21.5 16 21.5C16.7956 21.5 17.5587 21.1839 18.1213 20.6213C18.6839 20.0587 19 19.2957 19 18.5C19 17.7613 18.7622 15.4753 18.5605 13.5268L18.5507 13.4353C18.4777 12.7402 18.407 12.045 18.3385 11.3495C18.28 10.751 18.25 10.3685 18.25 10.25V1.25C18.25 1.05109 18.171 0.860324 18.0303 0.719672C17.8897 0.57902 17.6989 0.500002 17.5 0.500002H17.125Z" fill="#222222"/>
</svg>
