<svg width="20" height="20" viewBox="0 0 20 20" fill="none" xmlns="http://www.w3.org/2000/svg">
<path d="M4.09013 14.4901L3.95609 14.782L4.16581 15.0252C5.57709 16.6623 7.66765 17.6999 10 17.6999C12.3323 17.6999 14.4228 16.6623 15.8341 15.0253L16.0438 14.7821L15.9098 14.4902C14.8831 12.2543 12.6236 10.6999 9.99994 10.6999C7.37638 10.6999 5.11689 12.2542 4.09013 14.4901ZM19.1 9.9999C19.1 15.0257 15.0258 19.0999 10 19.0999C4.97423 19.0999 0.900024 15.0257 0.900024 9.9999C0.900024 4.97411 4.97423 0.899902 10 0.899902C15.0258 0.899902 19.1 4.97411 19.1 9.9999ZM10 9.2999C11.6017 9.2999 12.9 8.00153 12.9 6.3999C12.9 4.79828 11.6017 3.4999 10 3.4999C8.3984 3.4999 7.10002 4.79828 7.10002 6.3999C7.10002 8.00153 8.3984 9.2999 10 9.2999Z" stroke="#A0C8CD"/>
</svg>
